<svg xmlns="http://www.w3.org/2000/svg" width="1280" height="140" viewBox="0 0 1280 140" fill="none" role="img" aria-label="">
 <defs>
  <linearGradient id="gg" x1="0%" y1="0%" x2="100%" y2="0%">
   <stop offset="0%" stop-color="#4285F4"/><stop offset="33%" stop-color="#EA4335"/><stop offset="66%" stop-color="#FBBC05"/><stop offset="100%" stop-color="#34A853"/>
  </linearGradient>
 </defs>
 <circle cx="643.5" cy="12.9" r="1.11" fill="#fff" opacity="0.35"><animate attributeName="opacity" values="0.35;0.06;0.35" dur="2.5s" begin="1.6s" repeatCount="indefinite"/></circle>
  <circle cx="53.3" cy="1.4" r="0.83" fill="#fff" opacity="0.50"></circle>
  <circle cx="677.4" cy="48.0" r="1.32" fill="#fff" opacity="0.82"></circle>
  <circle cx="498.6" cy="20.9" r="1.78" fill="#fff" opacity="0.45"></circle>
  <circle cx="823.3" cy="2.8" r="1.57" fill="#fff" opacity="0.93"></circle>
  <circle cx="939.3" cy="52.0" r="0.60" fill="#fff" opacity="0.69"></circle>
  <circle cx="1068.7" cy="51.5" r="1.56" fill="#fff" opacity="0.73"></circle>
  <circle cx="874.1" cy="44.4" r="0.72" fill="#fff" opacity="0.37"><animate attributeName="opacity" values="0.37;0.07;0.37" dur="3.3s" begin="0.4s" repeatCount="indefinite"/></circle>
  <circle cx="1069.9" cy="35.7" r="1.28" fill="#fff" opacity="0.76"></circle>
  <circle cx="626.3" cy="0.2" r="1.52" fill="#fff" opacity="0.84"></circle>
  <circle cx="685.1" cy="42.2" r="0.49" fill="#fff" opacity="0.83"><animate attributeName="opacity" values="0.83;0.15;0.83" dur="2.4s" begin="1.1s" repeatCount="indefinite"/></circle>
  <circle cx="933.5" cy="13.1" r="1.44" fill="#fff" opacity="0.98"></circle>
  <circle cx="489.7" cy="30.7" r="1.36" fill="#fff" opacity="0.85"></circle>
  <circle cx="822.7" cy="5.0" r="0.61" fill="#fff" opacity="0.52"></circle>
  <circle cx="389.7" cy="36.3" r="0.42" fill="#fff" opacity="0.39"><animate attributeName="opacity" values="0.39;0.07;0.39" dur="4.2s" begin="2.8s" repeatCount="indefinite"/></circle>
  <circle cx="864.9" cy="18.6" r="1.12" fill="#fff" opacity="0.65"></circle>
  <circle cx="151.7" cy="57.2" r="0.68" fill="#fff" opacity="0.99"></circle>
  <circle cx="22.4" cy="29.4" r="1.55" fill="#fff" opacity="0.98"></circle>
  <circle cx="343.9" cy="13.4" r="1.72" fill="#fff" opacity="0.49"></circle>
  <circle cx="181.4" cy="33.5" r="1.73" fill="#fff" opacity="0.44"></circle>
  <circle cx="651.2" cy="56.8" r="1.38" fill="#fff" opacity="0.50"></circle>
  <circle cx="622.3" cy="1.6" r="0.41" fill="#fff" opacity="0.67"></circle>
  <circle cx="386.5" cy="9.0" r="0.88" fill="#fff" opacity="0.56"></circle>
  <circle cx="2.2" cy="48.0" r="1.57" fill="#fff" opacity="0.43"></circle>
  <circle cx="912.7" cy="57.7" r="0.81" fill="#fff" opacity="0.59"></circle>
  <circle cx="1278.5" cy="37.7" r="0.90" fill="#fff" opacity="0.63"><animate attributeName="opacity" values="0.63;0.11;0.63" dur="2.3s" begin="0.4s" repeatCount="indefinite"/></circle>
  <circle cx="1068.4" cy="18.3" r="1.71" fill="#fff" opacity="0.51"><animate attributeName="opacity" values="0.51;0.09;0.51" dur="3.7s" begin="0.8s" repeatCount="indefinite"/></circle>
  <circle cx="477.9" cy="61.2" r="1.64" fill="#fff" opacity="0.88"></circle>
 <path d="M0 140 L0 78.0 L0 85.9 L20 88.4 L40 90.4 L60 91.6 L80 92.0 L100 91.6 L120 90.4 L140 88.5 L160 86.0 L180 83.0 L200 79.7 L220 76.4 L240 73.1 L260 70.1 L280 67.6 L300 65.6 L320 64.4 L340 64.0 L360 64.4 L380 65.6 L400 67.5 L420 70.0 L440 73.0 L460 76.3 L480 79.6 L500 82.9 L520 85.9 L540 88.4 L560 90.4 L580 91.6 L600 92.0 L620 91.6 L640 90.4 L660 88.5 L680 86.0 L700 83.0 L720 79.7 L740 76.4 L760 73.1 L780 70.1 L800 67.6 L820 65.6 L840 64.4 L860 64.0 L880 64.4 L900 65.6 L920 67.5 L940 70.0 L960 73.0 L980 76.3 L1000 79.6 L1020 82.9 L1040 85.9 L1060 88.4 L1080 90.4 L1100 91.6 L1120 92.0 L1140 91.6 L1160 90.4 L1180 88.5 L1200 86.0 L1220 83.0 L1240 79.7 L1260 76.4 L1280 73.1 L1280 140 Z" fill="url(#gg)" opacity="0.28"/>
 <path d="M0 140 L0 98.0 L0 105.2 L20 102.4 L40 99.3 L60 96.1 L80 93.0 L100 90.3 L120 88.2 L140 86.7 L160 86.0 L180 86.2 L200 87.3 L220 89.0 L240 91.5 L260 94.4 L280 97.5 L300 100.7 L320 103.7 L340 106.3 L360 108.3 L380 109.6 L400 110.0 L420 109.6 L440 108.4 L460 106.4 L480 103.8 L500 100.9 L520 97.7 L540 94.5 L560 91.6 L580 89.2 L600 87.3 L620 86.3 L640 86.0 L660 86.6 L680 88.1 L700 90.2 L720 92.9 L740 95.9 L760 99.1 L780 102.2 L800 105.1 L820 107.4 L840 109.0 L860 109.9 L880 109.9 L900 109.1 L920 107.5 L940 105.2 L960 102.4 L980 99.3 L1000 96.1 L1020 93.0 L1040 90.3 L1060 88.2 L1080 86.7 L1100 86.0 L1120 86.2 L1140 87.3 L1160 89.0 L1180 91.5 L1200 94.4 L1220 97.5 L1240 100.7 L1260 103.7 L1280 106.3 L1280 140 Z" fill="url(#gg)" opacity="0.85"/>
</svg>